<svg xmlns="http://www.w3.org/2000/svg" width="14.098" height="10.523" viewBox="0 0 14.098 10.523">
  <path id="Union_54" data-name="Union 54" d="M1.146,9.523A1.026,1.026,0,0,1,0,8.562V1.575a1.042,1.042,0,0,1,1-1,2.8,2.8,0,0,1,.6.048A.481.481,0,0,1,1.85.768V.615a.615.615,0,1,1,1.229,0v.12A.479.479,0,0,1,3.4.614H6.455a.478.478,0,0,1,.3.109V.615a.615.615,0,1,1,1.229,0v.1a.48.48,0,0,1,.189-.09,1.638,1.638,0,0,1,1.267.2.962.962,0,0,1,.365.771c0,.17.005.615.006,1.328h0q0,.2,0,.417V3.97q0,1.565-.006,4.115v.333a1.166,1.166,0,0,1-.157.638,1.075,1.075,0,0,1-.973.468Zm-.181-1a.547.547,0,0,0,.2.035H8.659a.483.483,0,0,0,.177-.024.567.567,0,0,0,.007-.111v-.34q.006-3.039.006-4.677H.965ZM7.987,1.84a.616.616,0,0,1-.486.6H8.848c0-.426,0-.7-.005-.827a.2.2,0,0,0,0-.035.891.891,0,0,0-.452-.011.481.481,0,0,1-.4-.092Zm-4.907,0a.616.616,0,0,1-.486.6h4.65a.616.616,0,0,1-.486-.6V1.47a.479.479,0,0,1-.3.109H3.4a.478.478,0,0,1-.317-.121ZM.965,1.6V2.44H2.336a.616.616,0,0,1-.486-.6V1.423a.48.48,0,0,1-.464.143A2.992,2.992,0,0,0,1,1.545.152.152,0,0,0,.965,1.6ZM7.24.615V1.84a.132.132,0,1,0,.264,0V.615a.132.132,0,1,0-.264,0Zm-4.907,0V1.84a.132.132,0,0,0,.264,0V.615a.132.132,0,1,0-.264,0Zm5.2,7.352a.208.208,0,0,1-.208-.208V7.133a.208.208,0,0,1,.208-.208h.729a.208.208,0,0,1,.208.208v.625a.208.208,0,0,1-.208.208Zm-1.459,0a.208.208,0,0,1-.208-.208V7.133a.208.208,0,0,1,.208-.208h.729a.208.208,0,0,1,.208.208v.625a.208.208,0,0,1-.208.208Zm-1.459,0a.208.208,0,0,1-.208-.208V7.133a.208.208,0,0,1,.208-.208h.729a.208.208,0,0,1,.208.208v.625a.208.208,0,0,1-.208.208Zm-1.459,0a.208.208,0,0,1-.208-.208V7.133a.208.208,0,0,1,.208-.208h.729a.208.208,0,0,1,.208.208v.625a.208.208,0,0,1-.208.208Zm-1.459,0a.208.208,0,0,1-.208-.208V7.133A.208.208,0,0,1,1.7,6.924H2.43a.208.208,0,0,1,.208.208v.625a.208.208,0,0,1-.208.208ZM7.536,6.612A.208.208,0,0,1,7.327,6.4V5.778a.208.208,0,0,1,.208-.208h.729a.208.208,0,0,1,.208.208V6.4a.208.208,0,0,1-.208.208Zm-1.459,0A.208.208,0,0,1,5.869,6.4V5.778a.208.208,0,0,1,.208-.208h.729a.208.208,0,0,1,.208.208V6.4a.208.208,0,0,1-.208.208Zm-1.459,0A.208.208,0,0,1,4.41,6.4V5.778a.208.208,0,0,1,.208-.208h.729a.208.208,0,0,1,.208.208V6.4a.208.208,0,0,1-.208.208Zm-1.459,0A.208.208,0,0,1,2.951,6.4V5.778a.208.208,0,0,1,.208-.208h.729a.208.208,0,0,1,.208.208V6.4a.208.208,0,0,1-.208.208Zm-1.459,0A.208.208,0,0,1,1.492,6.4V5.778A.208.208,0,0,1,1.7,5.569H2.43a.208.208,0,0,1,.208.208V6.4a.208.208,0,0,1-.208.208ZM7.536,5.257a.208.208,0,0,1-.208-.208V4.423a.208.208,0,0,1,.208-.208h.729a.208.208,0,0,1,.208.208v.625a.208.208,0,0,1-.208.208Zm-1.459,0a.208.208,0,0,1-.208-.208V4.423a.208.208,0,0,1,.208-.208h.729a.208.208,0,0,1,.208.208v.625a.208.208,0,0,1-.208.208Zm-1.459,0a.208.208,0,0,1-.208-.208V4.423a.208.208,0,0,1,.208-.208h.729a.208.208,0,0,1,.208.208v.625a.208.208,0,0,1-.208.208Zm-1.459,0a.208.208,0,0,1-.208-.208V4.423a.208.208,0,0,1,.208-.208h.729a.208.208,0,0,1,.208.208v.625a.208.208,0,0,1-.208.208Zm-1.459,0a.208.208,0,0,1-.208-.208V4.423A.208.208,0,0,1,1.7,4.215H2.43a.208.208,0,0,1,.208.208v.625a.208.208,0,0,1-.208.208Z" transform="translate(2.131 0.5)" fill="#338ce5" stroke="rgba(0,0,0,0)" stroke-miterlimit="10" stroke-width="1"/>
</svg>
