<svg xmlns="http://www.w3.org/2000/svg" xmlns:xlink="http://www.w3.org/1999/xlink" width="89.792" height="35.047" viewBox="0 0 89.792 35.047">
  <defs>
    <linearGradient id="linear-gradient" x1="-0.631" y1="0.524" x2="0.96" y2="0.49" gradientUnits="objectBoundingBox">
      <stop offset="0" stop-color="#bcbec0"/>
      <stop offset="0.55" stop-color="#808285"/>
      <stop offset="0.62" stop-color="#788087"/>
      <stop offset="0.71" stop-color="#647b8e"/>
      <stop offset="0.82" stop-color="#437398"/>
      <stop offset="0.95" stop-color="#1569a7"/>
      <stop offset="1" stop-color="#0064af"/>
    </linearGradient>
    <linearGradient id="linear-gradient-2" x1="0.465" y1="-0.613" x2="0.515" y2="0.977" xlink:href="#linear-gradient"/>
    <linearGradient id="linear-gradient-3" x1="1.592" y1="0.515" x2="0.002" y2="0.493" xlink:href="#linear-gradient"/>
    <linearGradient id="linear-gradient-4" x1="0.566" y1="1.61" x2="0.47" y2="0.02" xlink:href="#linear-gradient"/>
    <linearGradient id="linear-gradient-5" x1="0.576" y1="1.311" x2="0.376" y2="-0.881" xlink:href="#linear-gradient"/>
    <linearGradient id="linear-gradient-6" x1="0.459" y1="-0.33" x2="0.565" y2="1.862" xlink:href="#linear-gradient"/>
    <linearGradient id="linear-gradient-7" x1="1.328" y1="0.518" x2="-0.865" y2="0.471" xlink:href="#linear-gradient"/>
    <linearGradient id="linear-gradient-8" x1="0.525" y1="0.904" x2="0.366" y2="-1.857" xlink:href="#linear-gradient"/>
  </defs>
  <g id="ikigai-cargo" transform="translate(-0.38 -1.25)">
    <path id="Path_9353" data-name="Path 9353" d="M107.986,39.9c-1.871,0-4.092,1.086-6.246,2.561.165.122.329.245.491.369.567.433,1.121.885,1.655,1.336a8.449,8.449,0,0,1,4.014-1.4,7.888,7.888,0,0,1,8.063,7.7,7.609,7.609,0,0,1-3.567,6.394c.018.187.027.374.027.559a11.39,11.39,0,0,1-.349,2.8,10.572,10.572,0,0,0-4.09-20.32Z" transform="translate(-83.13 -31.698)" fill="url(#linear-gradient)"/>
    <path id="Path_9354" data-name="Path 9354" d="M61.359,102.61c-.122.165-.245.329-.369.491-.435.567-.885,1.119-1.338,1.655a8.448,8.448,0,0,1,1.4,4.016,7.888,7.888,0,0,1-7.7,8.063,7.609,7.609,0,0,1-6.394-3.567c-.187.018-.374.027-.559.027a11.39,11.39,0,0,1-2.8-.349,10.572,10.572,0,0,0,20.32-4.09c0-1.871-1.086-4.092-2.561-6.246Z" transform="translate(-35.447 -83.13)" fill="url(#linear-gradient-2)"/>
    <path id="Path_9355" data-name="Path 9355" d="M16.706,61.85c-.567-.435-1.119-.885-1.653-1.338a8.455,8.455,0,0,1-4.016,1.4,7.888,7.888,0,0,1-8.063-7.7A7.609,7.609,0,0,1,6.54,47.816c-.018-.187-.027-.374-.027-.559a11.391,11.391,0,0,1,.349-2.8A10.573,10.573,0,0,0,10.95,64.782c1.871,0,4.092-1.086,6.246-2.561-.165-.122-.329-.245-.491-.369Z" transform="translate(0 -35.438)" fill="url(#linear-gradient-3)"/>
    <path id="Path_9356" data-name="Path 9356" d="M49.61,1.25A10.57,10.57,0,0,0,39.04,11.82c0,1.871,1.086,4.092,2.561,6.246.122-.165.245-.329.369-.491.435-.567.885-1.119,1.338-1.653a8.448,8.448,0,0,1-1.4-4.016,7.888,7.888,0,0,1,7.7-8.063A7.609,7.609,0,0,1,56,7.41c.187-.018.374-.027.559-.027a11.391,11.391,0,0,1,2.8.349A10.575,10.575,0,0,0,49.61,1.25Z" transform="translate(-31.707)" fill="url(#linear-gradient-4)"/>
    <path id="Path_9357" data-name="Path 9357" d="M104.22,72.829l.081.05c2.867-2.924,6.928-7.617,7.586-11.329a7.464,7.464,0,0,0-2.777-.871c-.031,3.568-4.953,8.781-6.91,10.714C102.855,71.9,103.538,72.4,104.22,72.829Z" transform="translate(-83.507 -48.741)" fill="url(#linear-gradient-5)"/>
    <path id="Path_9358" data-name="Path 9358" d="M47.227,68.9l-.081-.05c-2.867,2.924-6.926,7.617-7.586,11.327a7.454,7.454,0,0,0,2.777.871c.031-3.568,4.953-8.781,6.91-10.714-.655-.511-1.338-1-2.02-1.435Z" transform="translate(-32.133 -55.442)" fill="url(#linear-gradient-6)"/>
    <path id="Path_9359" data-name="Path 9359" d="M70.524,50.107c.511-.655,1-1.338,1.435-2.02l.05-.081c-2.924-2.867-7.617-6.928-11.329-7.586A7.464,7.464,0,0,0,59.81,43.2C63.378,43.228,68.591,48.149,70.524,50.107Z" transform="translate(-48.741 -32.125)" fill="url(#linear-gradient-7)"/>
    <path id="Path_9360" data-name="Path 9360" d="M69.466,103.07c-.511.655-1,1.338-1.435,2.02-.018.027-.032.054-.05.081,2.924,2.867,7.617,6.926,11.327,7.586a7.454,7.454,0,0,0,.871-2.777c-3.568-.031-8.781-4.951-10.714-6.91Z" transform="translate(-55.442 -83.507)" fill="url(#linear-gradient-8)"/>
    <rect id="Rectangle_8075" data-name="Rectangle 8075" width="1.781" height="8.004" transform="translate(41.602 7.962)" fill="#0064af"/>
    <path id="Path_9361" data-name="Path 9361" d="M266.329,38.57h-2.2l-2.959,3.612V38.57H259.39v8.005h1.781V42.637l3.059,3.939h2.212l-3.353-4.2Z" transform="translate(-212.425 -30.608)" fill="#0064af"/>
    <rect id="Rectangle_8076" data-name="Rectangle 8076" width="1.781" height="8.004" transform="translate(56.794 7.962)" fill="#0064af"/>
    <path id="Path_9362" data-name="Path 9362" d="M345.605,42.991l2.3.036a2.123,2.123,0,0,1-.171.457,1.837,1.837,0,0,1-.759.772,2.485,2.485,0,0,1-1.2.266,2.328,2.328,0,0,1-1.225-.318,2.258,2.258,0,0,1-.838-.885A2.734,2.734,0,0,1,343.407,42a2.665,2.665,0,0,1,.311-1.309,2.21,2.21,0,0,1,.867-.872,2.518,2.518,0,0,1,1.259-.311,2.691,2.691,0,0,1,1.18.25,2.525,2.525,0,0,1,.906.748l1.212-1.212a3.827,3.827,0,0,0-1.4-1.032,4.573,4.573,0,0,0-1.876-.374,4.511,4.511,0,0,0-1.678.311,4.21,4.21,0,0,0-1.367.872,4.031,4.031,0,0,0-.912,1.309A3.98,3.98,0,0,0,341.58,42a4.083,4.083,0,0,0,2.547,3.82,4.223,4.223,0,0,0,1.639.318,4.31,4.31,0,0,0,2.1-.5,3.485,3.485,0,0,0,1.428-1.48,5.156,5.156,0,0,0,.516-2.421v-.261h-4.207v1.507Z" transform="translate(-279.832 -30.05)" fill="#0064af"/>
    <path id="Path_9363" data-name="Path 9363" d="M402.624,38.57l-3.174,8.005H401.3l2.112-5.757,2.083,5.757h1.883l-3.142-8.005Z" transform="translate(-327.294 -30.608)" fill="#0064af"/>
    <rect id="Rectangle_8077" data-name="Rectangle 8077" width="1.781" height="8.004" transform="translate(82.973 7.962)" fill="#0064af"/>
    <path id="Path_9364" data-name="Path 9364" d="M234.823,119.961a2.7,2.7,0,0,1-1.067.192,2.487,2.487,0,0,1-.959-.182,2.139,2.139,0,0,1-.748-.511,2.329,2.329,0,0,1-.487-.793,2.9,2.9,0,0,1-.176-1.032,2.79,2.79,0,0,1,.176-1.02,2.357,2.357,0,0,1,.487-.793,2.118,2.118,0,0,1,.748-.505,2.547,2.547,0,0,1,.959-.176,2.625,2.625,0,0,1,1.038.192,2.248,2.248,0,0,1,.764.532l1.191-1.2a4.1,4.1,0,0,0-1.3-.838,4.426,4.426,0,0,0-1.694-.306,4.371,4.371,0,0,0-1.66.311,4.085,4.085,0,0,0-1.333.867,3.992,3.992,0,0,0-.885,1.309,4.32,4.32,0,0,0,0,3.255,4.059,4.059,0,0,0,2.228,2.2,4.38,4.38,0,0,0,1.662.311,4.5,4.5,0,0,0,1.718-.306,4.379,4.379,0,0,0,1.32-.84l-1.2-1.2a2.35,2.35,0,0,1-.782.532Z" transform="translate(-187.96 -92.077)" fill="#0064af"/>
    <path id="Path_9365" data-name="Path 9365" d="M285.323,114.21l-3.173,8.005H284l2.112-5.757,2.083,5.757h1.883l-3.14-8.005Z" transform="translate(-231.091 -92.643)" fill="#0064af"/>
    <path id="Path_9366" data-name="Path 9366" d="M346.938,118.63a2.278,2.278,0,0,0,.951-.822,2.386,2.386,0,0,0,0-2.455,2.315,2.315,0,0,0-.941-.833,3.088,3.088,0,0,0-1.394-.3H342.29v8h1.781v-3.3h.185l2.387,3.3h2.108l-2.567-3.36A2.9,2.9,0,0,0,346.938,118.63Zm-2.869-3.027h1.281a1.108,1.108,0,0,1,.817.284,1.061,1.061,0,0,1-.005,1.451,1.153,1.153,0,0,1-.822.272h-1.27Z" transform="translate(-280.415 -92.651)" fill="#0064af"/>
    <path id="Path_9367" data-name="Path 9367" d="M395.405,118.631l2.3.036a2.12,2.12,0,0,1-.171.457,1.837,1.837,0,0,1-.759.772,2.484,2.484,0,0,1-1.2.266,2.328,2.328,0,0,1-1.225-.318,2.257,2.257,0,0,1-.838-.885,2.734,2.734,0,0,1-.306-1.315,2.664,2.664,0,0,1,.311-1.309,2.21,2.21,0,0,1,.867-.872,2.519,2.519,0,0,1,1.259-.311,2.691,2.691,0,0,1,1.18.25,2.525,2.525,0,0,1,.906.748l1.212-1.212a3.826,3.826,0,0,0-1.4-1.032,4.573,4.573,0,0,0-1.876-.374,4.511,4.511,0,0,0-1.678.311,4.211,4.211,0,0,0-1.367.872,4.031,4.031,0,0,0-.912,1.309,3.98,3.98,0,0,0-.329,1.621,4.083,4.083,0,0,0,2.547,3.82,4.223,4.223,0,0,0,1.638.318,4.31,4.31,0,0,0,2.1-.5,3.485,3.485,0,0,0,1.428-1.48,5.156,5.156,0,0,0,.516-2.421v-.261h-4.207v1.507Z" transform="translate(-320.675 -92.086)" fill="#0064af"/>
    <path id="Path_9368" data-name="Path 9368" d="M460.927,115.968a4.011,4.011,0,0,0-.89-1.315,4.074,4.074,0,0,0-1.338-.872,4.384,4.384,0,0,0-1.66-.311,4.449,4.449,0,0,0-1.673.311,4.024,4.024,0,0,0-2.218,2.182,4.334,4.334,0,0,0,0,3.261,4.031,4.031,0,0,0,.9,1.32,4.2,4.2,0,0,0,1.344.885,4.317,4.317,0,0,0,1.673.318,4.193,4.193,0,0,0,1.649-.318,4.106,4.106,0,0,0,1.333-.88,4.052,4.052,0,0,0,.885-1.315,4.137,4.137,0,0,0,.318-1.628A4.2,4.2,0,0,0,460.927,115.968Zm-1.8,2.948a2.163,2.163,0,0,1-.833.89,2.416,2.416,0,0,1-1.252.317,2.517,2.517,0,0,1-.975-.182,2.1,2.1,0,0,1-.754-.516,2.312,2.312,0,0,1-.482-.8,2.981,2.981,0,0,1-.169-1.032,2.786,2.786,0,0,1,.295-1.32,2.128,2.128,0,0,1,.833-.872,2.451,2.451,0,0,1,1.254-.311,2.584,2.584,0,0,1,.969.176,2.114,2.114,0,0,1,.754.511,2.287,2.287,0,0,1,.487.793,2.932,2.932,0,0,1,.171,1.025,2.849,2.849,0,0,1-.295,1.32Z" transform="translate(-371.073 -92.036)" fill="#0064af"/>
  </g>
</svg>
