<svg xmlns="http://www.w3.org/2000/svg" xmlns:xlink="http://www.w3.org/1999/xlink" width="201" height="33" viewBox="0 0 201 33">
  <defs>
    <clipPath id="clip-path">
      <rect id="Rectangle_7876" data-name="Rectangle 7876" width="87.442" height="32.82" fill="none"/>
    </clipPath>
  </defs>
  <g id="Group_9770" data-name="Group 9770" transform="translate(891 1231)">
    <rect id="Rectangle_7885" data-name="Rectangle 7885" width="99" height="33" rx="5" transform="translate(-789 -1231)" fill="#eef0f3"/>
    <text id="Backoffice_Client_System" data-name="Backoffice Client
System" transform="translate(-777 -1216)" fill="#574f68" font-size="10" font-family="Outfit-SemiBold, Outfit" font-weight="600"><tspan x="0" y="0">Backoffice Client</tspan><tspan x="0" y="10">System</tspan></text>
    <rect id="Rectangle_7884" data-name="Rectangle 7884" width="1" height="33" transform="translate(-797 -1231)" fill="#dadce0"/>
    <g id="Group_9769" data-name="Group 9769" transform="translate(-891 -1231)">
      <g id="Group_9754" data-name="Group 9754" transform="translate(0 0)" clip-path="url(#clip-path)">
        <path id="Path_9313" data-name="Path 9313" d="M.571,35.559V30.573h.993l1.18,3.53c.108.329.189.575.238.738q.086-.272.265-.8l1.194-3.47h.888v4.986H4.693V31.386L3.244,35.559h-.6L1.207,31.315v4.244Z" transform="translate(-0.053 -2.823)" fill="#574f68"/>
        <path id="Path_9314" data-name="Path 9314" d="M8.336,35.559V33.446L6.415,30.573h.8l.982,1.5c.182.28.351.563.507.843q.223-.389.544-.881l.967-1.465h.768L9,33.446v2.113Z" transform="translate(-0.593 -2.823)" fill="#574f68"/>
        <rect id="Rectangle_7873" data-name="Rectangle 7873" width="0.661" height="4.986" transform="translate(12.908 27.749)" fill="#574f68"/>
        <path id="Path_9315" data-name="Path 9315" d="M16.222,35.559V30.573H16.9l2.619,3.914V30.573h.633v4.986h-.676L16.856,31.64v3.918Z" transform="translate(-1.498 -2.823)" fill="#574f68"/>
        <path id="Path_9316" data-name="Path 9316" d="M21.773,35.56V30.573H23.49a4.111,4.111,0,0,1,.887.072A1.7,1.7,0,0,1,25.11,31a2.043,2.043,0,0,1,.589.853,3.346,3.346,0,0,1,.2,1.184,3.464,3.464,0,0,1-.133,1.007,2.437,2.437,0,0,1-.339.725,1.8,1.8,0,0,1-.455.454,1.872,1.872,0,0,1-.595.25,3.375,3.375,0,0,1-.8.085Zm.66-.588H23.5a2.6,2.6,0,0,0,.773-.092,1.113,1.113,0,0,0,.447-.26,1.581,1.581,0,0,0,.366-.632,3.071,3.071,0,0,0,.132-.96,2.327,2.327,0,0,0-.258-1.2,1.284,1.284,0,0,0-.624-.563,2.548,2.548,0,0,0-.854-.1H22.433Z" transform="translate(-2.011 -2.823)" fill="#574f68"/>
        <path id="Path_9317" data-name="Path 9317" d="M27.092,33.122a2.706,2.706,0,0,1,.667-1.943,2.266,2.266,0,0,1,1.721-.7,2.392,2.392,0,0,1,1.245.33,2.162,2.162,0,0,1,.845.919,3,3,0,0,1,.291,1.34,2.94,2.94,0,0,1-.307,1.357,2.091,2.091,0,0,1-.868.907,2.487,2.487,0,0,1-1.21.307,2.357,2.357,0,0,1-1.259-.339,2.182,2.182,0,0,1-.84-.929,2.8,2.8,0,0,1-.287-1.244m.682.01a2,2,0,0,0,.484,1.42,1.69,1.69,0,0,0,2.442,0,2.113,2.113,0,0,0,.481-1.487,2.573,2.573,0,0,0-.2-1.063,1.584,1.584,0,0,0-.6-.7,1.629,1.629,0,0,0-.889-.25,1.686,1.686,0,0,0-1.206.481,2.147,2.147,0,0,0-.5,1.607" transform="translate(-2.502 -2.814)" fill="#574f68"/>
        <path id="Path_9318" data-name="Path 9318" d="M34.39,35.559l1.915-4.986h.711l2.041,4.986H38.3l-.58-1.51H35.639l-.548,1.51Zm1.439-2.047h1.69L37,32.131c-.158-.42-.277-.763-.354-1.034a6.262,6.262,0,0,1-.268.952Z" transform="translate(-3.176 -2.823)" fill="#574f68"/>
        <rect id="Rectangle_7874" data-name="Rectangle 7874" width="0.661" height="4.986" transform="translate(36.518 27.749)" fill="#574f68"/>
        <path id="Path_9319" data-name="Path 9319" d="M42.255,35.559V30.573h2.211a2.912,2.912,0,0,1,1.013.134,1.105,1.105,0,0,1,.555.474,1.411,1.411,0,0,1,.208.752,1.253,1.253,0,0,1-.344.895,1.747,1.747,0,0,1-1.061.462,1.712,1.712,0,0,1,.4.248,3.44,3.44,0,0,1,.548.664l.867,1.357h-.83l-.659-1.037c-.193-.3-.351-.53-.477-.688a1.461,1.461,0,0,0-.335-.333.948.948,0,0,0-.3-.133,1.936,1.936,0,0,0-.368-.024h-.764v2.214Zm.66-2.786h1.419a2.125,2.125,0,0,0,.707-.093.758.758,0,0,0,.388-.3.817.817,0,0,0,.133-.447.742.742,0,0,0-.258-.582,1.207,1.207,0,0,0-.811-.227H42.915Z" transform="translate(-3.903 -2.823)" fill="#574f68"/>
        <path id="Path_9320" data-name="Path 9320" d="M47.755,35.559V30.573h.66v4.4h2.456v.588Z" transform="translate(-4.411 -2.823)" fill="#574f68"/>
        <rect id="Rectangle_7875" data-name="Rectangle 7875" width="0.661" height="4.986" transform="translate(47.358 27.749)" fill="#574f68"/>
        <path id="Path_9321" data-name="Path 9321" d="M54.178,35.559V30.573h.677l2.619,3.914V30.573h.633v4.986H57.43L54.811,31.64v3.918Z" transform="translate(-5.004 -2.823)" fill="#574f68"/>
        <path id="Path_9322" data-name="Path 9322" d="M59.743,35.559V30.573h3.605v.587H60.4v1.528h2.758v.585H60.4v1.7h3.061v.588Z" transform="translate(-5.518 -2.823)" fill="#574f68"/>
        <path id="Path_9323" data-name="Path 9323" d="M64.6,33.948l.623-.054a1.373,1.373,0,0,0,.2.614,1.124,1.124,0,0,0,.5.388,1.893,1.893,0,0,0,.765.148,1.852,1.852,0,0,0,.667-.112.941.941,0,0,0,.43-.309.719.719,0,0,0,.141-.427.647.647,0,0,0-.136-.409,1.01,1.01,0,0,0-.448-.294,8.788,8.788,0,0,0-.889-.244,4.5,4.5,0,0,1-.961-.311,1.353,1.353,0,0,1-.532-.464,1.126,1.126,0,0,1-.176-.621A1.253,1.253,0,0,1,65,31.148a1.316,1.316,0,0,1,.625-.5,2.352,2.352,0,0,1,.916-.17,2.465,2.465,0,0,1,.976.179,1.4,1.4,0,0,1,.653.525,1.506,1.506,0,0,1,.245.786l-.633.047a1.026,1.026,0,0,0-.345-.713,1.343,1.343,0,0,0-.87-.242,1.385,1.385,0,0,0-.87.219.659.659,0,0,0-.276.529.567.567,0,0,0,.194.443,2.648,2.648,0,0,0,.995.356,6.717,6.717,0,0,1,1.1.317,1.526,1.526,0,0,1,.643.509,1.238,1.238,0,0,1,.208.709,1.359,1.359,0,0,1-.229.751,1.5,1.5,0,0,1-.654.546,2.266,2.266,0,0,1-.961.2,2.868,2.868,0,0,1-1.135-.2,1.588,1.588,0,0,1-.718-.594,1.677,1.677,0,0,1-.272-.9" transform="translate(-5.966 -2.815)" fill="#574f68"/>
        <path id="Path_9324" data-name="Path 9324" d="M12.551,25.067H0L24.975.156l6.179,6.18Z" transform="translate(0 -0.014)" fill="#467dbe"/>
        <path id="Path_9325" data-name="Path 9325" d="M48.363,6.337,54.352.157l6.435,6.18-6.212,6.052Z" transform="translate(-4.467 -0.014)" fill="#467dbe"/>
        <path id="Path_9326" data-name="Path 9326" d="M75.809,6.258a11.848,11.848,0,0,1,4.917-3.732c2.609-1.205,7.507-.982,7.507-.982A15.244,15.244,0,0,1,94.445.006L81.989,12.375Z" transform="translate(-7.002 0.001)" fill="#467dbe"/>
        <path id="Path_9327" data-name="Path 9327" d="M27.516,25.067,39.939,12.612,27.516.156H39.939L52.649,12.39,40.083,25.067Z" transform="translate(-2.541 -0.014)" fill="#f89021"/>
        <path id="Path_9328" data-name="Path 9328" d="M54.961.142,67.679,12.6,55.185,25.053H67.679L80.063,12.375,67.512,0Z" transform="translate(-5.076 0)" fill="#f89021"/>
      </g>
    </g>
  </g>
</svg>
