<svg xmlns="http://www.w3.org/2000/svg" xmlns:xlink="http://www.w3.org/1999/xlink" width="32" height="32" viewBox="0 0 32 32">
  <defs>
    <clipPath id="clip-path">
      <rect id="Rectangle_7876" data-name="Rectangle 7876" width="23.462" height="8.806" fill="none"/>
    </clipPath>
  </defs>
  <g id="Group_9759" data-name="Group 9759" transform="translate(1823 1294)">
    <circle id="Ellipse_20" data-name="Ellipse 20" cx="16" cy="16" r="16" transform="translate(-1823 -1294)" fill="#e9ebef"/>
    <g id="Group_9758" data-name="Group 9758" transform="translate(-1819 -1282)">
      <g id="Group_9754" data-name="Group 9754" transform="translate(0 0)" clip-path="url(#clip-path)">
        <path id="Path_9313" data-name="Path 9313" d="M.571,31.911V30.573H.837l.317.947c.029.088.051.154.064.2q.023-.073.071-.214l.32-.931h.238v1.338H1.677v-1.12l-.389,1.12h-.16L.742,30.772v1.139Z" transform="translate(-0.432 -23.127)" fill="#574f68"/>
        <path id="Path_9314" data-name="Path 9314" d="M6.931,31.911v-.567l-.516-.771h.216l.263.4c.049.075.094.151.136.226q.06-.1.146-.236l.259-.393h.206l-.534.771v.567Z" transform="translate(-4.853 -23.127)" fill="#574f68"/>
        <rect id="Rectangle_7873" data-name="Rectangle 7873" width="0.177" height="1.338" transform="translate(3.463 7.445)" fill="#574f68"/>
        <path id="Path_9315" data-name="Path 9315" d="M16.222,31.911V30.573H16.4l.7,1.05v-1.05h.17v1.338h-.181l-.7-1.051v1.051Z" transform="translate(-12.272 -23.128)" fill="#574f68"/>
        <path id="Path_9316" data-name="Path 9316" d="M21.773,31.911V30.573h.461a1.1,1.1,0,0,1,.238.019.456.456,0,0,1,.2.1.548.548,0,0,1,.158.229.9.9,0,0,1,.053.318.93.93,0,0,1-.036.27.654.654,0,0,1-.091.195.482.482,0,0,1-.122.122.5.5,0,0,1-.16.067.906.906,0,0,1-.215.023Zm.177-.158h.286a.7.7,0,0,0,.207-.025.3.3,0,0,0,.12-.07.424.424,0,0,0,.1-.169.824.824,0,0,0,.035-.258.624.624,0,0,0-.069-.322.344.344,0,0,0-.168-.151.684.684,0,0,0-.229-.028H21.95Z" transform="translate(-16.471 -23.127)" fill="#574f68"/>
        <path id="Path_9317" data-name="Path 9317" d="M27.092,31.185a.726.726,0,0,1,.179-.521.608.608,0,0,1,.462-.189.642.642,0,0,1,.334.089.58.58,0,0,1,.227.247.8.8,0,0,1,.078.359.789.789,0,0,1-.082.364.561.561,0,0,1-.233.243.667.667,0,0,1-.325.082.632.632,0,0,1-.338-.091.586.586,0,0,1-.225-.249.752.752,0,0,1-.077-.334m.183,0a.535.535,0,0,0,.13.381.453.453,0,0,0,.655,0,.567.567,0,0,0,.129-.4.69.69,0,0,0-.055-.285.425.425,0,0,0-.162-.189.437.437,0,0,0-.238-.067.452.452,0,0,0-.324.129.576.576,0,0,0-.135.431" transform="translate(-20.494 -23.053)" fill="#574f68"/>
        <path id="Path_9318" data-name="Path 9318" d="M34.39,31.911l.514-1.338h.191l.548,1.338h-.2l-.156-.405h-.559l-.147.405Zm.386-.549h.453l-.14-.371c-.042-.113-.074-.2-.095-.277a1.68,1.68,0,0,1-.072.255Z" transform="translate(-26.015 -23.127)" fill="#574f68"/>
        <rect id="Rectangle_7874" data-name="Rectangle 7874" width="0.177" height="1.338" transform="translate(9.798 7.445)" fill="#574f68"/>
        <path id="Path_9319" data-name="Path 9319" d="M42.255,31.911V30.573h.593a.781.781,0,0,1,.272.036.3.3,0,0,1,.149.127.379.379,0,0,1,.056.2.336.336,0,0,1-.092.24.469.469,0,0,1-.285.124.459.459,0,0,1,.107.066.923.923,0,0,1,.147.178l.233.364h-.223l-.177-.278c-.052-.081-.094-.142-.128-.185a.392.392,0,0,0-.09-.089.254.254,0,0,0-.081-.036.519.519,0,0,0-.1-.006h-.205v.594Zm.177-.747h.381a.57.57,0,0,0,.19-.025.2.2,0,0,0,.1-.08.219.219,0,0,0,.036-.12.2.2,0,0,0-.069-.156.324.324,0,0,0-.218-.061h-.423Z" transform="translate(-31.965 -23.127)" fill="#574f68"/>
        <path id="Path_9320" data-name="Path 9320" d="M47.755,31.911V30.573h.177v1.18h.659v.158Z" transform="translate(-36.125 -23.128)" fill="#574f68"/>
        <rect id="Rectangle_7875" data-name="Rectangle 7875" width="0.177" height="1.338" transform="translate(12.707 7.445)" fill="#574f68"/>
        <path id="Path_9321" data-name="Path 9321" d="M54.178,31.911V30.573h.182l.7,1.05v-1.05h.17v1.338H55.05l-.7-1.051v1.051Z" transform="translate(-40.984 -23.128)" fill="#574f68"/>
        <path id="Path_9322" data-name="Path 9322" d="M59.743,31.911V30.573h.967v.158h-.79v.41h.74V31.3h-.74v.455h.821v.158Z" transform="translate(-45.194 -23.128)" fill="#574f68"/>
        <path id="Path_9323" data-name="Path 9323" d="M64.6,31.411l.167-.015a.368.368,0,0,0,.055.165.3.3,0,0,0,.135.1.508.508,0,0,0,.205.04.5.5,0,0,0,.179-.03.253.253,0,0,0,.115-.083.193.193,0,0,0,.038-.114.174.174,0,0,0-.037-.11.271.271,0,0,0-.12-.079,2.358,2.358,0,0,0-.239-.066,1.207,1.207,0,0,1-.258-.084.363.363,0,0,1-.143-.124.3.3,0,0,1-.047-.167.336.336,0,0,1,.058-.189.353.353,0,0,1,.168-.134.631.631,0,0,1,.246-.046.662.662,0,0,1,.262.048.376.376,0,0,1,.175.141.4.4,0,0,1,.066.211l-.17.013a.275.275,0,0,0-.093-.191.36.36,0,0,0-.234-.065.372.372,0,0,0-.234.059.177.177,0,0,0-.074.142.152.152,0,0,0,.052.119.71.71,0,0,0,.267.1,1.8,1.8,0,0,1,.3.085.409.409,0,0,1,.172.137.332.332,0,0,1,.056.19.364.364,0,0,1-.061.2.4.4,0,0,1-.176.147.608.608,0,0,1-.258.053.77.77,0,0,1-.3-.053.426.426,0,0,1-.193-.159.45.45,0,0,1-.073-.24" transform="translate(-48.867 -23.057)" fill="#574f68"/>
        <path id="Path_9324" data-name="Path 9324" d="M3.368,6.84H0L6.7.156,8.359,1.815Z" transform="translate(0 -0.118)" fill="#467dbe"/>
        <path id="Path_9325" data-name="Path 9325" d="M48.363,1.815,49.97.157,51.7,1.815,50.03,3.439Z" transform="translate(-36.585 -0.118)" fill="#467dbe"/>
        <path id="Path_9326" data-name="Path 9326" d="M75.809,1.679a3.179,3.179,0,0,1,1.319-1A5.592,5.592,0,0,1,79.142.414,4.09,4.09,0,0,1,80.809,0L77.467,3.32Z" transform="translate(-57.347 0.001)" fill="#467dbe"/>
        <path id="Path_9327" data-name="Path 9327" d="M27.516,6.84,30.849,3.5,27.516.156h3.333l3.41,3.282-3.372,3.4Z" transform="translate(-20.815 -0.118)" fill="#f89021"/>
        <path id="Path_9328" data-name="Path 9328" d="M54.961.038,58.374,3.38,55.021,6.722h3.352L61.7,3.32,58.329,0Z" transform="translate(-41.577 0)" fill="#f89021"/>
      </g>
    </g>
  </g>
</svg>
