<svg xmlns="http://www.w3.org/2000/svg" width="18.633" height="15.803" viewBox="0 0 18.633 15.803">
  <g id="Group_1731" data-name="Group 1731" transform="translate(0 15.803) rotate(-90)">
    <path id="Path_5247" data-name="Path 5247" d="M13.341,16.993H2.683A2.821,2.821,0,0,1,0,13.937V1.416A1.68,1.68,0,0,1,1.789,0C2.907,0,3.5.522,3.5,1.491V11.85c.075.224.894,1.789,4.323,1.789,3.727,0,4.621-1.64,4.7-1.789V1.565A1.5,1.5,0,0,1,14.086.074a1.6,1.6,0,0,1,1.64,1.342v.075h0c.074.3.074,1.938.074,12.894a3.185,3.185,0,0,1-.671,2.087A3.181,3.181,0,0,1,13.341,16.993ZM.522,1.416V13.863A2.234,2.234,0,0,0,2.609,16.4H13.267a1.594,1.594,0,0,0,1.342-.522,2.609,2.609,0,0,0,.522-1.714V1.416A1.075,1.075,0,0,0,14.012.522a.9.9,0,0,0-.969.894v10.36c0,.447-1.416,2.311-5.292,2.311-4.1,0-4.845-2.087-4.845-2.162V1.416c0-.3,0-.894-1.118-.894A1.2,1.2,0,0,0,.522,1.416Z" transform="translate(0 1.64)" fill="#bdbdbd"/>
    <path id="Path_5248" data-name="Path 5248" d="M0,2.236A2.46,2.46,0,0,1,.6.745,2.758,2.758,0,0,1,2.609,0h8.72a2.377,2.377,0,0,1,2.012,2.161l-.6-.074C12.745.969,11.4.6,11.18.522H2.534a2.174,2.174,0,0,0-1.64.522A1.65,1.65,0,0,0,.447,2.087Z" transform="translate(1.192)" fill="#bdbdbd"/>
  </g>
</svg>
