<svg xmlns="http://www.w3.org/2000/svg" xmlns:xlink="http://www.w3.org/1999/xlink" width="54.333" height="88.245" viewBox="0 0 54.333 88.245">
  <defs>
    <clipPath id="clip-path">
      <path id="Path_5591" data-name="Path 5591" d="M4.546.894C7.08.894,9.093.671,9.093.447,9.093.149,7.08,0,4.546,0S0,.224,0,.447,2.012.894,4.546.894Z"/>
    </clipPath>
    <clipPath id="clip-path-2">
      <path id="Path_5592" data-name="Path 5592" d="M.4,0H6.214a.2.2,0,0,1,.224.224,8.853,8.853,0,0,1,.224,2.683A4.17,4.17,0,0,1,5.543,5.217h0c-.075.074-.075.074-.149.074H1.3c-.075,0-.149,0-.149-.074A3.581,3.581,0,0,1,.028,2.907,8.188,8.188,0,0,1,.252.224h0C.177.074.252,0,.4,0Z"/>
    </clipPath>
    <clipPath id="clip-path-3">
      <rect id="Rectangle_1872" data-name="Rectangle 1872" width="9.838" height="5.739"/>
    </clipPath>
  </defs>
  <g id="Group_7377" data-name="Group 7377" transform="translate(1400.664 -4298.305)">
    <path id="Path_5590" data-name="Path 5590" d="M44.5,54.333C74.382,54.333,88.245,0,88.245,0H0C0,.075,14.608,54.333,44.5,54.333Z" transform="translate(-1400.664 4386.55) rotate(-90)" fill="#2db4d0" fill-rule="evenodd"/>
    <g id="Group_2338" data-name="Group 2338" transform="translate(-1381.435 4347.496) rotate(-90)">
      <g id="Group_2333" data-name="Group 2333" transform="translate(0 4.845)">
        <g id="Group_2332" data-name="Group 2332" transform="translate(0 0)" clip-path="url(#clip-path)">
          <rect id="Rectangle_1870" data-name="Rectangle 1870" width="11.478" height="3.354" transform="translate(-1.193 -1.267)" fill="#fff"/>
        </g>
      </g>
      <g id="Group_2335" data-name="Group 2335" transform="translate(1.239 0)">
        <g id="Group_2334" data-name="Group 2334" transform="translate(0 0)" clip-path="url(#clip-path-2)">
          <rect id="Rectangle_1871" data-name="Rectangle 1871" width="9.167" height="7.677" transform="translate(-1.239 -1.193)" fill="#fff"/>
        </g>
      </g>
      <g id="Group_2337" data-name="Group 2337">
        <g id="Group_2336" data-name="Group 2336" clip-path="url(#clip-path-3)">
          <path id="Path_5593" data-name="Path 5593" d="M1.416,2.832A1.416,1.416,0,1,1,2.832,1.416,1.33,1.33,0,0,1,1.416,2.832Zm0-2.385a.987.987,0,0,0-.969.969.987.987,0,0,0,.969.969.987.987,0,0,0,.969-.969A.94.94,0,0,0,1.416.447Z" transform="translate(6.931 1.193)" fill="#fff"/>
        </g>
      </g>
    </g>
  </g>
</svg>
