<svg xmlns="http://www.w3.org/2000/svg" xmlns:xlink="http://www.w3.org/1999/xlink" width="23.999" height="114.107" viewBox="0 0 23.999 114.107">
  <defs>
    <clipPath id="clip-path">
      <path id="Path_5594" data-name="Path 5594" d="M1.361.028h0c.149.075.3.3.224.447L.691,2.86h0a.362.362,0,0,1-.447.224h0A.362.362,0,0,1,.02,2.637L.914.252h0A.332.332,0,0,1,1.361.028Z" transform="translate(0)"/>
    </clipPath>
    <clipPath id="clip-path-2">
      <path id="Path_5595" data-name="Path 5595" d="M.447,0h0A.481.481,0,0,1,.894.447V3.354h0A.481.481,0,0,1,.447,3.8h0A.481.481,0,0,1,0,3.354V.447H0A.43.43,0,0,1,.447,0Z"/>
    </clipPath>
    <clipPath id="clip-path-4">
      <path id="Path_5597" data-name="Path 5597" d="M.224.028h0A.332.332,0,0,1,.671.252l.894,2.385h0a.332.332,0,0,1-.224.447h0A.332.332,0,0,1,.894,2.86L0,.475H0A.531.531,0,0,1,.224.028Z" transform="translate(0 0)"/>
    </clipPath>
    <clipPath id="clip-path-5">
      <path id="Path_5598" data-name="Path 5598" d="M.373,0H2.385a.32.32,0,0,1,.3.3V.373l-.3,2.385H.3L0,.373H0C.075.149.224,0,.373,0Z"/>
    </clipPath>
    <clipPath id="clip-path-6">
      <path id="Path_5599" data-name="Path 5599" d="M.373,2.758H2.981a.321.321,0,0,0,.3-.3V2.385L2.683,0H.6L0,2.385H0c.075.149.149.373.373.373Z"/>
    </clipPath>
    <clipPath id="clip-path-7">
      <path id="Path_5600" data-name="Path 5600" d="M.969,1.938A.987.987,0,0,0,1.938.969.987.987,0,0,0,.969,0,.987.987,0,0,0,0,.969a.94.94,0,0,0,.969.969Z"/>
    </clipPath>
    <clipPath id="clip-path-9">
      <path id="Path_5602" data-name="Path 5602" d="M.447,0h0A.481.481,0,0,1,.894.447V5.068h0a.481.481,0,0,1-.447.447h0A.481.481,0,0,1,0,5.068V.447H0A.43.43,0,0,1,.447,0Z"/>
    </clipPath>
    <clipPath id="clip-path-10">
      <path id="Path_5603" data-name="Path 5603" d="M.447,0h0A.481.481,0,0,1,.894.447V5.068h0a.481.481,0,0,1-.447.447h0A.481.481,0,0,1,0,5.068V.447H0Q.112,0,.447,0Z"/>
    </clipPath>
    <clipPath id="clip-path-11">
      <path id="Path_5604" data-name="Path 5604" d="M.252.028h0A.332.332,0,0,1,.7.252l.894,2.385h0a.332.332,0,0,1-.224.447h0A.332.332,0,0,1,.922,2.86L.028.475h0A.332.332,0,0,1,.252.028Z" transform="translate(0 0)"/>
    </clipPath>
    <clipPath id="clip-path-12">
      <path id="Path_5605" data-name="Path 5605" d="M.3,0H2.385a.32.32,0,0,1,.3.3h0L2.534,3.8h0a.321.321,0,0,1-.3.3H.447a.321.321,0,0,1-.3-.3L0,.3H0A.32.32,0,0,1,.3,0Z"/>
    </clipPath>
    <clipPath id="clip-path-13">
      <path id="Path_5606" data-name="Path 5606" d="M.969,1.938A.987.987,0,0,0,1.938.969.987.987,0,0,0,.969,0,.987.987,0,0,0,0,.969a.985.985,0,0,0,.969.969Z"/>
    </clipPath>
    <clipPath id="clip-path-14">
      <rect id="Rectangle_1887" data-name="Rectangle 1887" width="0.522" height="10.733"/>
    </clipPath>
    <clipPath id="clip-path-15">
      <path id="Path_5607" data-name="Path 5607" d="M1.361.028h0c.149.075.3.3.224.447L.691,2.86h0a.362.362,0,0,1-.447.224h0A.362.362,0,0,1,.02,2.637L.914.252h0A.312.312,0,0,1,1.361.028Z" transform="translate(0)"/>
    </clipPath>
    <clipPath id="clip-path-16">
      <path id="Path_5608" data-name="Path 5608" d="M.447,0h0A.481.481,0,0,1,.894.447V3.354h0A.481.481,0,0,1,.447,3.8h0A.481.481,0,0,1,0,3.354V.447H0Q.112,0,.447,0Z"/>
    </clipPath>
    <clipPath id="clip-path-18">
      <path id="Path_5610" data-name="Path 5610" d="M.243.028h0A.332.332,0,0,1,.691.252l.894,2.385h0a.332.332,0,0,1-.224.447h0A.332.332,0,0,1,.914,2.86L.02.475h0C-.055.326.094.1.243.028Z" transform="translate(0 0)"/>
    </clipPath>
    <clipPath id="clip-path-19">
      <path id="Path_5611" data-name="Path 5611" d="M.373,0H2.385a.32.32,0,0,1,.3.3V.373l-.3,2.385H.3L0,.373H0A.352.352,0,0,1,.373,0Z"/>
    </clipPath>
    <clipPath id="clip-path-20">
      <path id="Path_5612" data-name="Path 5612" d="M.373,2.758H2.981a.321.321,0,0,0,.3-.3V2.385L2.683,0H.6L0,2.385H0a.4.4,0,0,0,.373.373Z"/>
    </clipPath>
    <clipPath id="clip-path-21">
      <path id="Path_5613" data-name="Path 5613" d="M.969,1.938A.987.987,0,0,0,1.938.969.987.987,0,0,0,.969,0,.987.987,0,0,0,0,.969a.939.939,0,0,0,.969.969Z"/>
    </clipPath>
    <clipPath id="clip-path-26">
      <path id="Path_5618" data-name="Path 5618" d="M.318,0H2.4a.32.32,0,0,1,.3.3h0L2.553,3.8h0a.321.321,0,0,1-.3.3H.467a.321.321,0,0,1-.3-.3L.019.3h0C-.055.149.094,0,.318,0Z"/>
    </clipPath>
  </defs>
  <g id="Group_7376" data-name="Group 7376" transform="translate(1450.227 -4285.337)">
    <path id="Path_5568" data-name="Path 5568" d="M40.023,23.03V.969A.987.987,0,0,0,39.054,0H0C1.863,8.645,3.727,16.62,5.59,24H39.054A.986.986,0,0,0,40.023,23.03Z" transform="translate(-1450.227 4399.444) rotate(-90)" fill="#2db4d0" fill-rule="evenodd"/>
    <path id="Path_5569" data-name="Path 5569" d="M40.023,0H.969A.986.986,0,0,0,0,.969V23.03A.987.987,0,0,0,.969,24H34.433C36.3,16.62,38.16,8.646,40.023,0Z" transform="translate(-1450.227 4325.36) rotate(-90)" fill="#2db4d0" fill-rule="evenodd"/>
    <g id="Group_2367" data-name="Group 2367" transform="translate(-1443.743 4384.478) rotate(-90)">
      <g id="Group_2340" data-name="Group 2340" transform="translate(0 2.651)">
        <g id="Group_2339" data-name="Group 2339" transform="translate(0 1.508) rotate(-70.007)" clip-path="url(#clip-path)">
          <rect id="Rectangle_1873" data-name="Rectangle 1873" width="6.335" height="3.801" transform="translate(-2.365 -0.345)" fill="#fff"/>
        </g>
      </g>
      <g id="Group_2342" data-name="Group 2342" transform="translate(2.25 6.931)">
        <g id="Group_2341" data-name="Group 2341" transform="translate(0)" clip-path="url(#clip-path-2)">
          <rect id="Rectangle_1874" data-name="Rectangle 1874" width="3.95" height="6.857" transform="translate(-1.565 -1.565)" fill="#fff"/>
        </g>
      </g>
      <g id="Group_2344" data-name="Group 2344" transform="translate(3.442 6.931)">
        <g id="Group_2343" data-name="Group 2343" transform="translate(0)" clip-path="url(#clip-path-2)">
          <rect id="Rectangle_1875" data-name="Rectangle 1875" width="3.95" height="6.857" transform="translate(-1.565 -1.565)" fill="#fff"/>
        </g>
      </g>
      <g id="Group_2346" data-name="Group 2346" transform="translate(3.55 2.215)">
        <g id="Group_2345" data-name="Group 2345" transform="matrix(0.94, -0.342, 0.342, 0.94, 0, 0.545)" clip-path="url(#clip-path-4)">
          <rect id="Rectangle_1876" data-name="Rectangle 1876" width="3.801" height="6.335" transform="translate(-1.043 -1.612)" fill="#fff"/>
        </g>
      </g>
      <g id="Group_2348" data-name="Group 2348" transform="translate(1.877 2.311)">
        <g id="Group_2347" data-name="Group 2347" transform="translate(0 0)" clip-path="url(#clip-path-5)">
          <rect id="Rectangle_1877" data-name="Rectangle 1877" width="5.739" height="5.813" transform="translate(-1.491 -1.565)" fill="#fff"/>
        </g>
      </g>
      <g id="Group_2350" data-name="Group 2350" transform="translate(1.579 4.472)">
        <g id="Group_2349" data-name="Group 2349" clip-path="url(#clip-path-6)">
          <rect id="Rectangle_1878" data-name="Rectangle 1878" width="6.335" height="5.813" transform="translate(-1.491 -1.491)" fill="#fff"/>
        </g>
      </g>
      <g id="Group_2352" data-name="Group 2352" transform="translate(2.399)">
        <g id="Group_2351" data-name="Group 2351" clip-path="url(#clip-path-7)">
          <rect id="Rectangle_1879" data-name="Rectangle 1879" width="4.994" height="4.994" transform="translate(-1.491 -1.491)" fill="#fff"/>
        </g>
      </g>
      <g id="Group_2354" data-name="Group 2354" transform="translate(7.223 2.698)">
        <g id="Group_2353" data-name="Group 2353" transform="matrix(0.342, -0.94, 0.94, 0.342, 0, 1.508)" clip-path="url(#clip-path)">
          <rect id="Rectangle_1880" data-name="Rectangle 1880" width="6.335" height="3.801" transform="translate(-2.365 -0.345)" fill="#fff"/>
        </g>
      </g>
      <g id="Group_2356" data-name="Group 2356" transform="translate(9.405 5.217)">
        <g id="Group_2355" data-name="Group 2355" clip-path="url(#clip-path-9)">
          <rect id="Rectangle_1881" data-name="Rectangle 1881" width="3.95" height="8.571" transform="translate(-1.491 -1.565)" fill="#fff"/>
        </g>
      </g>
      <g id="Group_2358" data-name="Group 2358" transform="translate(10.597 5.217)">
        <g id="Group_2357" data-name="Group 2357" clip-path="url(#clip-path-10)">
          <rect id="Rectangle_1882" data-name="Rectangle 1882" width="3.95" height="8.571" transform="translate(-1.491 -1.565)" fill="#fff"/>
        </g>
      </g>
      <g id="Group_2360" data-name="Group 2360" transform="translate(10.734 2.207)">
        <g id="Group_2359" data-name="Group 2359" transform="matrix(0.94, -0.342, 0.342, 0.94, 0, 0.554)" clip-path="url(#clip-path-11)">
          <rect id="Rectangle_1883" data-name="Rectangle 1883" width="3.801" height="6.335" transform="translate(-1.09 -1.612)" fill="#fff"/>
        </g>
      </g>
      <g id="Group_2362" data-name="Group 2362" transform="translate(9.107 2.311)">
        <g id="Group_2361" data-name="Group 2361" transform="translate(0)" clip-path="url(#clip-path-12)">
          <rect id="Rectangle_1884" data-name="Rectangle 1884" width="5.813" height="7.23" transform="translate(-1.565 -1.565)" fill="#fff"/>
        </g>
      </g>
      <g id="Group_2364" data-name="Group 2364" transform="translate(9.554)">
        <g id="Group_2363" data-name="Group 2363" clip-path="url(#clip-path-13)">
          <rect id="Rectangle_1885" data-name="Rectangle 1885" width="4.994" height="4.994" transform="translate(-1.491 -1.491)" fill="#fff"/>
        </g>
      </g>
      <g id="Group_2366" data-name="Group 2366" transform="translate(6.722 0.075)">
        <g id="Group_2365" data-name="Group 2365" transform="translate(0)" clip-path="url(#clip-path-14)">
          <rect id="Rectangle_1886" data-name="Rectangle 1886" width="3.578" height="13.863" transform="translate(-1.565 -1.565)" fill="#fff"/>
        </g>
      </g>
    </g>
    <g id="Group_2396" data-name="Group 2396" transform="translate(-1443.743 4314.143) rotate(-90)">
      <g id="Group_2369" data-name="Group 2369" transform="translate(0 2.613)">
        <g id="Group_2368" data-name="Group 2368" transform="translate(0 1.508) rotate(-70.007)" clip-path="url(#clip-path-15)">
          <rect id="Rectangle_1888" data-name="Rectangle 1888" width="6.335" height="3.801" transform="translate(-2.365 -0.345)" fill="#fff"/>
        </g>
      </g>
      <g id="Group_2371" data-name="Group 2371" transform="translate(2.198 6.931)">
        <g id="Group_2370" data-name="Group 2370" clip-path="url(#clip-path-16)">
          <rect id="Rectangle_1889" data-name="Rectangle 1889" width="3.95" height="6.857" transform="translate(-1.491 -1.565)" fill="#fff"/>
        </g>
      </g>
      <g id="Group_2373" data-name="Group 2373" transform="translate(3.391 6.931)">
        <g id="Group_2372" data-name="Group 2372" transform="translate(0)" clip-path="url(#clip-path-16)">
          <rect id="Rectangle_1890" data-name="Rectangle 1890" width="3.95" height="6.857" transform="translate(-1.491 -1.565)" fill="#fff"/>
        </g>
      </g>
      <g id="Group_2375" data-name="Group 2375" transform="translate(3.554 2.203)">
        <g id="Group_2374" data-name="Group 2374" transform="matrix(0.94, -0.342, 0.342, 0.94, 0, 0.551)" clip-path="url(#clip-path-18)">
          <rect id="Rectangle_1891" data-name="Rectangle 1891" width="3.801" height="6.335" transform="translate(-1.098 -1.612)" fill="#fff"/>
        </g>
      </g>
      <g id="Group_2377" data-name="Group 2377" transform="translate(1.9 2.311)">
        <g id="Group_2376" data-name="Group 2376" transform="translate(0 0)" clip-path="url(#clip-path-19)">
          <rect id="Rectangle_1892" data-name="Rectangle 1892" width="5.739" height="5.813" transform="translate(-1.491 -1.565)" fill="#fff"/>
        </g>
      </g>
      <g id="Group_2379" data-name="Group 2379" transform="translate(1.602 4.472)">
        <g id="Group_2378" data-name="Group 2378" transform="translate(0)" clip-path="url(#clip-path-20)">
          <rect id="Rectangle_1893" data-name="Rectangle 1893" width="6.335" height="5.813" transform="translate(-1.491 -1.491)" fill="#fff"/>
        </g>
      </g>
      <g id="Group_2381" data-name="Group 2381" transform="translate(2.422)">
        <g id="Group_2380" data-name="Group 2380" transform="translate(0)" clip-path="url(#clip-path-21)">
          <rect id="Rectangle_1894" data-name="Rectangle 1894" width="4.994" height="4.994" transform="translate(-1.565 -1.491)" fill="#fff"/>
        </g>
      </g>
      <g id="Group_2383" data-name="Group 2383" transform="translate(7.224 2.67)">
        <g id="Group_2382" data-name="Group 2382" transform="matrix(0.342, -0.94, 0.94, 0.342, 0, 1.508)" clip-path="url(#clip-path)">
          <rect id="Rectangle_1895" data-name="Rectangle 1895" width="6.335" height="3.801" transform="translate(-2.365 -0.345)" fill="#fff"/>
        </g>
      </g>
      <g id="Group_2385" data-name="Group 2385" transform="translate(9.428 5.217)">
        <g id="Group_2384" data-name="Group 2384" clip-path="url(#clip-path-9)">
          <rect id="Rectangle_1896" data-name="Rectangle 1896" width="3.95" height="8.571" transform="translate(-1.565 -1.565)" fill="#fff"/>
        </g>
      </g>
      <g id="Group_2387" data-name="Group 2387" transform="translate(10.62 5.217)">
        <g id="Group_2386" data-name="Group 2386" clip-path="url(#clip-path-9)">
          <rect id="Rectangle_1897" data-name="Rectangle 1897" width="3.95" height="8.571" transform="translate(-1.565 -1.565)" fill="#fff"/>
        </g>
      </g>
      <g id="Group_2389" data-name="Group 2389" transform="translate(10.713 2.222)">
        <g id="Group_2388" data-name="Group 2388" transform="matrix(0.94, -0.342, 0.342, 0.94, 0, 0.545)" clip-path="url(#clip-path-4)">
          <rect id="Rectangle_1898" data-name="Rectangle 1898" width="3.801" height="6.335" transform="translate(-1.118 -1.612)" fill="#fff"/>
        </g>
      </g>
      <g id="Group_2391" data-name="Group 2391" transform="translate(9.11 2.311)">
        <g id="Group_2390" data-name="Group 2390" transform="translate(0)" clip-path="url(#clip-path-26)">
          <rect id="Rectangle_1899" data-name="Rectangle 1899" width="5.813" height="7.23" transform="translate(-1.546 -1.565)" fill="#fff"/>
        </g>
      </g>
      <g id="Group_2393" data-name="Group 2393" transform="translate(9.577)">
        <g id="Group_2392" data-name="Group 2392" clip-path="url(#clip-path-21)">
          <rect id="Rectangle_1900" data-name="Rectangle 1900" width="4.994" height="4.994" transform="translate(-1.491 -1.491)" fill="#fff"/>
        </g>
      </g>
      <g id="Group_2395" data-name="Group 2395" transform="translate(6.67 0.075)">
        <g id="Group_2394" data-name="Group 2394" transform="translate(0)" clip-path="url(#clip-path-14)">
          <rect id="Rectangle_1901" data-name="Rectangle 1901" width="3.578" height="13.863" transform="translate(-1.491 -1.565)" fill="#fff"/>
        </g>
      </g>
    </g>
  </g>
</svg>
