<svg xmlns="http://www.w3.org/2000/svg" width="27.726" height="19.604" viewBox="0 0 27.726 19.604">
  <g id="Group_1822" data-name="Group 1822" transform="translate(0 19.604) rotate(-90)">
    <g id="Group_1817" data-name="Group 1817" transform="translate(4.277)">
      <g id="Group_1800" data-name="Group 1800" transform="translate(0)">
        <g id="Group_1797" data-name="Group 1797" transform="translate(0 10.986)">
          <rect id="Rectangle_1824" data-name="Rectangle 1824" width="0.149" height="0.149" transform="translate(0 0.148) rotate(-82.178)" fill="#bdbdbd"/>
        </g>
        <g id="Group_1798" data-name="Group 1798" transform="translate(0.123)">
          <path id="Path_5294" data-name="Path 5294" d="M0,10.658l.075-.3H.224l-.075.3Zm.075-.671.075-.3H.3l-.075.3Zm.075-.671.075-.3H.373l-.075.3Zm.075-.671.075-.3H.447l-.075.3Zm.149-.671.075-.3H.6l-.075.3ZM.447,7.3l.075-.3H.671L.6,7.3Zm.075-.671.075-.3H.745l-.075.3ZM.6,5.962l.075-.3H.82l-.075.3Zm.075-.6.075-.3H.894l-.075.3ZM.82,4.7l.075-.3h.149l-.075.3Zm.075-.671.075-.3h.149l-.075.3Zm.075-.671.075-.3h.149l-.075.3Zm.075-.671.075-.3h.149l-.075.3Zm.075-.671.075-.3h.149l-.075.3Zm.149-.671V1.192A.577.577,0,0,1,1.342.969l.149.075a.26.26,0,0,1-.075.149h0v.149ZM1.491.671c.075-.075.149-.224.224-.3l.149.149C1.789.6,1.714.671,1.714.745ZM1.938.149C2.012.074,2.161.074,2.31,0V.149c-.075,0-.224.075-.3.075ZM2.609,0h.373V.149h-.3ZM4.621.149V0h.373V.149Zm-.671,0V0h.373V.149ZM3.279,0h.373V.149h-.3Z" fill="#bdbdbd"/>
        </g>
        <g id="Group_1799" data-name="Group 1799" transform="translate(5.44 0.064)">
          <rect id="Rectangle_1825" data-name="Rectangle 1825" width="0.149" height="0.149" transform="matrix(0.016, -1, 1, 0.016, 0, 0.149)" fill="#bdbdbd"/>
        </g>
      </g>
      <g id="Group_1804" data-name="Group 1804" transform="translate(5.419)">
        <g id="Group_1801" data-name="Group 1801" transform="translate(5.428 10.931)">
          <rect id="Rectangle_1826" data-name="Rectangle 1826" width="0.149" height="0.149" transform="translate(0 0.02) rotate(-7.857)" fill="#bdbdbd"/>
        </g>
        <g id="Group_1802" data-name="Group 1802" transform="translate(0.518)">
          <path id="Path_5295" data-name="Path 5295" d="M4.77,10.36h.149l.075.3H4.845ZM4.7,9.689h.149l.075.3H4.77Zm-.075-.671H4.77l.075.3H4.7Zm-.149-.671h.149l.075.3H4.546ZM4.4,7.677h.149l.075.3H4.472Zm-.075-.671h.149l.075.3H4.4Zm-.075-.671H4.4l.075.3H4.323Zm-.074-.671h.149l.075.3H4.248Zm-.149-.671h.149l.074.3H4.1ZM3.95,4.323H4.1l.075.3H4.025Zm-.075-.6h.149l.075.3H3.95ZM3.8,3.056H3.95l.075.3H3.876Zm-.075-.671h.149l.075.3H3.8Zm-.149-.671h.149l.075.3H3.652ZM3.5,1.267a.231.231,0,0,0-.075-.149l.149-.075a.577.577,0,0,1,.075.224v.149H3.5ZM3.2.522,3.354.373a1.029,1.029,0,0,1,.224.3L3.428.745Q3.2.633,3.2.522Zm-.6-.3V.074c.149,0,.224.075.373.149L2.907.373A.387.387,0,0,0,2.609.224Zm-.6-.074V0h.373V.149ZM0,0H.3V.149H0ZM.671,0h.373V.149h-.3Zm.671.149V0h.373V.149Z" fill="#bdbdbd"/>
        </g>
        <g id="Group_1803" data-name="Group 1803" transform="translate(0 0.003)">
          <rect id="Rectangle_1827" data-name="Rectangle 1827" width="0.149" height="0.149" transform="translate(0 0.002) rotate(-0.912)" fill="#bdbdbd"/>
        </g>
      </g>
      <g id="Group_1808" data-name="Group 1808" transform="translate(1.315 2.683)">
        <g id="Group_1805" data-name="Group 1805">
          <rect id="Rectangle_1828" data-name="Rectangle 1828" width="0.149" height="0.149" fill="#bdbdbd"/>
        </g>
        <g id="Group_1806" data-name="Group 1806" transform="translate(0.522)">
          <path id="Path_5296" data-name="Path 5296" d="M0,0H.373V.149H0ZM.745,0h.373V.149H.745Zm.671,0h.373V.149H1.416Zm.671,0H2.46V.149H2.087Zm.745,0H3.2V.149H2.832ZM3.5,0h.373V.149H3.5Zm.671,0h.373V.149H4.174Zm.745,0h.373V.149H4.919ZM5.59,0h.373V.149H5.59Zm.671,0h.373V.149H6.261Zm.745,0h.373V.149H7.006Z" fill="#bdbdbd"/>
        </g>
        <g id="Group_1807" data-name="Group 1807" transform="translate(8.198)">
          <rect id="Rectangle_1829" data-name="Rectangle 1829" width="0.149" height="0.149" fill="#bdbdbd"/>
        </g>
      </g>
      <g id="Group_1812" data-name="Group 1812" transform="translate(0.943 5.59)">
        <g id="Group_1809" data-name="Group 1809">
          <rect id="Rectangle_1830" data-name="Rectangle 1830" width="0.149" height="0.149" fill="#bdbdbd"/>
        </g>
        <g id="Group_1810" data-name="Group 1810" transform="translate(0.522)">
          <path id="Path_5297" data-name="Path 5297" d="M0,0H.373V.149H0ZM.745,0h.373V.149H.745Zm.671,0h.373V.149H1.416Zm.671,0H2.46V.149H2.087Zm.745,0H3.2V.149H2.832ZM3.5,0h.373V.149H3.5Zm.745,0h.373V.149H4.248Zm.671,0h.373V.149H4.919Zm.745,0h.373V.149H5.664Zm.671,0h.373V.149H6.335Zm.671,0h.373V.149H7.006Zm.745,0h.373V.149H7.751Z" fill="#bdbdbd"/>
        </g>
        <g id="Group_1811" data-name="Group 1811" transform="translate(8.944)">
          <rect id="Rectangle_1831" data-name="Rectangle 1831" width="0.149" height="0.149" fill="#bdbdbd"/>
        </g>
      </g>
      <g id="Group_1816" data-name="Group 1816" transform="translate(0.421 8.795)">
        <g id="Group_1813" data-name="Group 1813">
          <rect id="Rectangle_1832" data-name="Rectangle 1832" width="0.149" height="0.149" fill="#bdbdbd"/>
        </g>
        <g id="Group_1814" data-name="Group 1814" transform="translate(0.522)">
          <path id="Path_5298" data-name="Path 5298" d="M0,0H.373V.149H0ZM.671,0h.373V.149H.671Zm.671,0h.373V.149H1.342Zm.671,0h.373V.149H2.012Zm.671,0h.373V.149H2.683Zm.671,0h.373V.149H3.354ZM4.1,0h.373V.149H4.1ZM4.77,0h.373V.149H4.77Zm.671,0h.373V.149H5.441Zm.671,0h.373V.149H6.112Zm.671,0h.373V.149H6.782Zm.671,0h.373V.149H7.453Zm.671,0H8.5V.149H8.124Zm.671,0h.373V.149H8.795Z" fill="#bdbdbd"/>
        </g>
        <g id="Group_1815" data-name="Group 1815" transform="translate(9.987)">
          <rect id="Rectangle_1833" data-name="Rectangle 1833" width="0.149" height="0.149" fill="#bdbdbd"/>
        </g>
      </g>
    </g>
    <g id="Group_1818" data-name="Group 1818" transform="translate(0 9.316)">
      <path id="Path_5299" data-name="Path 5299" d="M2.313,18.335a2.515,2.515,0,0,1-1.714-.6A2.2,2.2,0,0,1,0,16.1V1.863A1.6,1.6,0,0,1,.524.522,1.992,1.992,0,0,1,1.866,0,1.915,1.915,0,0,1,3.655,1.863v9.391H3.282V1.863C3.282,1.789,3.133.3,1.866.3A1.5,1.5,0,0,0,.822.745,1.464,1.464,0,0,0,.45,1.863V16.1A1.851,1.851,0,0,0,.9,17.44a2.366,2.366,0,0,0,1.714.522H17c.075,0,1.342,0,1.342-1.565V5.59a1.84,1.84,0,0,0-.373-1.118A1.417,1.417,0,0,0,17,4.1h-.075c-.224,0-1.193.075-1.267,1.491v5.888h-.373V5.59a1.934,1.934,0,0,1,.6-1.416A1.81,1.81,0,0,1,16.921,3.8a1.753,1.753,0,0,1,1.267.447,2.14,2.14,0,0,1,.522,1.416V16.471A1.724,1.724,0,0,1,17,18.409H2.611A.563.563,0,0,0,2.313,18.335Z" fill="#bdbdbd"/>
    </g>
    <g id="Group_1819" data-name="Group 1819" transform="translate(1.86 19.95)">
      <path id="Path_5300" data-name="Path 5300" d="M14.167,6.136H1.72A1.659,1.659,0,0,1,.3,5.614a1.437,1.437,0,0,1-.3-1.043v-3.5C.006.62.081.248.379.1c.6-.3,1.565.3,1.64.373A12.662,12.662,0,0,0,7.683,1.589c4.025.075,5.664-.969,5.664-.969.894-.6,1.491-.745,1.863-.522.447.224.373.894.373.894V4.645A1.373,1.373,0,0,1,14.167,6.136ZM.751.4A.274.274,0,0,0,.528.471Q.3.583.3,1.142h0v3.5a.928.928,0,0,0,.224.745,1.446,1.446,0,0,0,1.193.373H14.167a1.071,1.071,0,0,0,1.043-1.118V.993s.074-.447-.224-.6C14.838.322,14.465.248,13.5.919c-.075.075-1.714,1.043-5.813,1.043A12.592,12.592,0,0,1,1.869.77,3.927,3.927,0,0,0,.751.4Z" transform="translate(0 0)" fill="#bdbdbd"/>
    </g>
    <g id="Group_1820" data-name="Group 1820" transform="translate(3.58 10.956)">
      <path id="Path_5301" data-name="Path 5301" d="M12.968,2.385A2.1,2.1,0,0,0,12.447.82,1.571,1.571,0,0,0,11.254.373H0V0H11.254a2.46,2.46,0,0,1,1.491.6,2.417,2.417,0,0,1,.671,1.789h-.447Z" fill="#bdbdbd"/>
    </g>
    <g id="Group_1821" data-name="Group 1821" transform="translate(16.698 5.441)">
      <path id="Path_5302" data-name="Path 5302" d="M0,7.6V1.863A1.894,1.894,0,0,1,.522.3a1.448,1.448,0,0,1,.82-.3H2.907V.373H1.342A1.09,1.09,0,0,0,.745.6,1.47,1.47,0,0,0,.373,1.938V7.677Z" fill="#bdbdbd"/>
    </g>
  </g>
</svg>
