<svg xmlns="http://www.w3.org/2000/svg" width="27.651" height="19.381" viewBox="0 0 27.651 19.381">
  <g id="Group_1848" data-name="Group 1848" transform="translate(0 19.381) rotate(-90)">
    <g id="Group_1843" data-name="Group 1843" transform="translate(4.288)">
      <g id="Group_1826" data-name="Group 1826" transform="translate(5.405 0)">
        <g id="Group_1823" data-name="Group 1823" transform="translate(5.437 10.956)">
          <path id="Path_5303" data-name="Path 5303" d="M0,.224V.074L.149,0V.224Z" fill="#bdbdbd"/>
        </g>
        <g id="Group_1824" data-name="Group 1824" transform="translate(0.518)">
          <path id="Path_5304" data-name="Path 5304" d="M4.845,10.658l-.075-.3h.149l.075.3ZM4.77,9.987l-.075-.3h.149l.075.3ZM4.7,9.316l-.075-.3H4.77l.075.3Zm-.149-.671-.075-.3h.149l.075.3Zm-.075-.671-.075-.3h.149l.075.3Zm-.075-.6-.074-.3h.149l.075.3Zm-.074-.671-.075-.3H4.4l.075.3Zm-.075-.671-.075-.3h.149l.074.3ZM4.1,5.366l-.075-.3h.149l.075.3ZM4.025,4.7,3.95,4.4H4.1l.075.3ZM3.95,4.025l-.075-.3h.149l.075.3Zm-.075-.671-.075-.3H3.95l.075.3Zm-.149-.671-.075-.3H3.8l.075.3Zm-.075-.671-.075-.3h.149l.075.3Zm-.075-.671V1.192h0A.231.231,0,0,0,3.5,1.043L3.652.969a.577.577,0,0,1,.075.224v.149Zm-.224-.6C3.279.671,3.2.6,3.2.522L3.354.373a1.028,1.028,0,0,1,.224.3ZM2.981.3c-.075-.075-.149-.075-.3-.075V.074c.149,0,.224.075.373.149ZM2.31.149h-.3V0h.373ZM0,.149V0H.373V.149Zm.671,0V0h.373V.149Zm1.043,0h-.3V0h.373Z" fill="#bdbdbd"/>
        </g>
        <g id="Group_1825" data-name="Group 1825" transform="translate(0 0.004)">
          <rect id="Rectangle_1834" data-name="Rectangle 1834" width="0.149" height="0.149" transform="matrix(1, -0.016, 0.016, 1, 0, 0.002)" fill="#bdbdbd"/>
        </g>
      </g>
      <g id="Group_1830" data-name="Group 1830">
        <g id="Group_1827" data-name="Group 1827" transform="translate(0 11.008)">
          <rect id="Rectangle_1835" data-name="Rectangle 1835" width="0.149" height="0.149" transform="translate(0 0.148) rotate(-82.143)" fill="#bdbdbd"/>
        </g>
        <g id="Group_1828" data-name="Group 1828" transform="translate(0.11)">
          <path id="Path_5305" data-name="Path 5305" d="M.149,10.658H0l.075-.3H.224Zm.074-.671H.075l.075-.3H.3Zm.149-.671H.224l.075-.3H.447Zm.075-.671H.3l.075-.3H.522Zm.075-.671H.373l.074-.3H.6Zm.074-.6H.447l.075-.3H.671Zm.149-.671H.6l.075-.3H.82ZM.82,6.037H.671l.075-.3H.894Zm.074-.671H.745l.074-.3H.969ZM.969,4.7H.82l.075-.3h.149Zm.075-.671H.894l.075-.3h.149Zm.149-.671H1.043l.074-.3h.149Zm.074-.671H1.118l.075-.3h.149Zm.075-.671H1.192l.075-.3h.149Zm.075-.671H1.267V1.193A.577.577,0,0,1,1.342.969l.149.075a.26.26,0,0,1-.074.149Zm.224-.6L1.491.671c.075-.075.149-.224.224-.3l.149.149ZM2.087.3,2.012.149C2.087.075,2.236.075,2.385,0V.149C2.236.224,2.161.3,2.087.3Zm.6-.149V0h.373V.149Zm2.31,0H4.7V0h.3Zm-.671,0h-.3V0H4.4Zm-.969,0V0h.373V.149Z" fill="#bdbdbd"/>
        </g>
        <g id="Group_1829" data-name="Group 1829" transform="translate(5.448 0.011)">
          <rect id="Rectangle_1836" data-name="Rectangle 1836" width="0.149" height="0.149" transform="translate(0 0.149) rotate(-89.089)" fill="#bdbdbd"/>
        </g>
      </g>
      <g id="Group_1834" data-name="Group 1834" transform="translate(1.377 2.683)">
        <g id="Group_1831" data-name="Group 1831" transform="translate(8.124 0)">
          <rect id="Rectangle_1837" data-name="Rectangle 1837" width="0.149" height="0.149" fill="#bdbdbd"/>
        </g>
        <g id="Group_1832" data-name="Group 1832" transform="translate(0.522)">
          <path id="Path_5306" data-name="Path 5306" d="M7.3.149H6.931V0H7.3Zm-.745,0H6.186V0h.373Zm-.671,0H5.515V0h.373Zm-.671,0H4.845V0h.373Zm-.745,0H4.1V0h.373ZM3.8.149H3.428V0H3.8Zm-.671,0H2.758V0H3.13Zm-.745,0H2.012V0h.373Zm-.671,0H1.342V0h.373Zm-.671,0H.671V0h.373ZM.3.149H0V0H.373V.149Z" fill="#bdbdbd"/>
        </g>
        <g id="Group_1833" data-name="Group 1833" transform="translate(0 0)">
          <rect id="Rectangle_1838" data-name="Rectangle 1838" width="0.149" height="0.149" fill="#bdbdbd"/>
        </g>
      </g>
      <g id="Group_1838" data-name="Group 1838" transform="translate(0.93 5.59)">
        <g id="Group_1835" data-name="Group 1835" transform="translate(9.018)">
          <rect id="Rectangle_1839" data-name="Rectangle 1839" width="0.149" height="0.149" fill="#cfcfcf"/>
        </g>
        <g id="Group_1836" data-name="Group 1836" transform="translate(0.522)">
          <path id="Path_5307" data-name="Path 5307" d="M8.124.149H7.751V0h.373Zm-.745,0H7.006V0h.373Zm-.671,0H6.335V0h.373Zm-.671,0H5.664V0h.373Zm-.745,0H4.919V0h.373Zm-.671,0H4.248V0h.373Zm-.745,0H3.5V0h.373ZM3.2.149H2.832V0H3.2Zm-.745,0H2.087V0H2.46Zm-.671,0H1.416V0h.373Zm-.671,0H.745V0h.373Zm-.745,0H0V0H.373Z" fill="#cfcfcf"/>
        </g>
        <g id="Group_1837" data-name="Group 1837">
          <rect id="Rectangle_1840" data-name="Rectangle 1840" width="0.149" height="0.149" fill="#cfcfcf"/>
        </g>
      </g>
      <g id="Group_1842" data-name="Group 1842" transform="translate(0.408 8.795)">
        <g id="Group_1839" data-name="Group 1839" transform="translate(10.062)">
          <rect id="Rectangle_1841" data-name="Rectangle 1841" width="0.149" height="0.149" fill="#cfcfcf"/>
        </g>
        <g id="Group_1840" data-name="Group 1840" transform="translate(0.522)">
          <path id="Path_5308" data-name="Path 5308" d="M9.167.149H8.795V0h.373ZM8.5.149H8.124V0H8.5Zm-.671,0H7.453V0h.373Zm-.671,0H6.782V0h.373Zm-.671,0H6.112V0h.373Zm-.671,0H5.441V0h.373Zm-.745,0H4.7V0h.373ZM4.4.149H4.025V0H4.4Zm-.671,0H3.354V0h.373Zm-.671,0H2.683V0h.373Zm-.671,0H2.012V0h.373Zm-.671,0H1.342V0h.373Zm-.671,0H.671V0h.373Zm-.671,0H0V0H.373Z" fill="#cfcfcf"/>
        </g>
        <g id="Group_1841" data-name="Group 1841">
          <rect id="Rectangle_1842" data-name="Rectangle 1842" width="0.149" height="0.149" fill="#cfcfcf"/>
        </g>
      </g>
    </g>
    <g id="Group_1844" data-name="Group 1844" transform="translate(0.894 9.313)">
      <path id="Path_5309" data-name="Path 5309" d="M16.4,18.338H1.714A1.757,1.757,0,0,1,0,16.4V5.593A2.386,2.386,0,0,1,.522,4.177,1.753,1.753,0,0,1,1.789,3.73h0A1.353,1.353,0,0,1,2.832,4.1a1.794,1.794,0,0,1,.6,1.416v5.888H3.056V5.518a1.621,1.621,0,0,0-.522-1.193,1.448,1.448,0,0,0-.82-.3h0A1.616,1.616,0,0,0,.671,4.4,1.493,1.493,0,0,0,.3,5.518V16.325c0,1.565,1.267,1.565,1.342,1.565H16.024a2.08,2.08,0,0,0,1.714-.522,1.851,1.851,0,0,0,.447-1.342V1.717A1.677,1.677,0,0,0,17.813.6,1.613,1.613,0,0,0,16.77.152h-.075c-1.267,0-1.416,1.491-1.416,1.565v9.316h-.373V1.866C14.981,1.2,15.353-.071,16.695,0a1.969,1.969,0,0,1,1.267.522,1.987,1.987,0,0,1,.522,1.342V16.1a2.069,2.069,0,0,1-.6,1.565C17.738,18.114,17.142,18.338,16.4,18.338Z" transform="translate(0 0)" fill="#bdbdbd"/>
    </g>
    <g id="Group_1845" data-name="Group 1845" transform="translate(2.082 19.95)">
      <path id="Path_5310" data-name="Path 5310" d="M13.867,6.136H1.421A1.41,1.41,0,0,1,0,4.645V.993A.994.994,0,0,1,.377.1C.75-.125,1.346.024,2.241.62c0,0,1.64,1.043,5.664.969A12.662,12.662,0,0,0,13.569.471c.075-.075,1.043-.671,1.64-.3.3.149.373.447.373.969v3.5a1.341,1.341,0,0,1-.3.969A1.572,1.572,0,0,1,13.867,6.136ZM.824.4A.274.274,0,0,0,.6.471c-.224.149-.224.6-.224.6V4.72A1.014,1.014,0,0,0,1.421,5.838H13.867a1.75,1.75,0,0,0,1.193-.373.928.928,0,0,0,.224-.745v-3.5h0q0-.559-.224-.671c-.373-.224-1.043.149-1.267.3A12.843,12.843,0,0,1,7.9,2.036C3.731,2.111,2.166,1.068,2.092.993A1.969,1.969,0,0,0,.824.4Z" transform="translate(0 0)" fill="#bdbdbd"/>
    </g>
    <g id="Group_1846" data-name="Group 1846" transform="translate(2.683 10.956)">
      <path id="Path_5311" data-name="Path 5311" d="M.373,2.385H0A2.305,2.305,0,0,1,.671.6,2.211,2.211,0,0,1,2.161,0H13.416V.373H2.161A1.89,1.89,0,0,0,.969.82,1.878,1.878,0,0,0,.373,2.385Z" fill="#bdbdbd"/>
    </g>
    <g id="Group_1847" data-name="Group 1847" transform="translate(0 5.36)">
      <path id="Path_5312" data-name="Path 5312" d="M2.907,7.683H2.534V1.944A2.059,2.059,0,0,0,2.161.6.807.807,0,0,0,1.64.379H0V.006H1.565a1,1,0,0,1,.82.3,1.894,1.894,0,0,1,.522,1.565Z" transform="translate(0 0)" fill="#bdbdbd"/>
    </g>
  </g>
</svg>
