<svg id="Layer_1" data-name="Layer 1" xmlns="http://www.w3.org/2000/svg" viewBox="0 0 252.28 95.81"><defs><style>.cls-1{fill:#574f68;}.cls-2{fill:#467dbe;}.cls-3{fill:#f89021;}</style></defs><path class="cls-1" d="M1.45,95V80.63H4.32l3.4,10.19L8.41,93c.16-.52.42-1.29.76-2.3l3.45-10h2.56V95H13.35V83L9.16,95H7.45L3.29,82.77V95Z"/><path class="cls-1" d="M22.3,95v-6.1l-5.54-8.29h2.32L21.91,85c.53.81,1,1.62,1.47,2.44.43-.76.95-1.6,1.57-2.55l2.79-4.23H30l-5.74,8.29V95Z"/><path class="cls-1" d="M37.21,95V80.63h1.91V95Z"/><path class="cls-1" d="M42.45,95V80.63H44.4L52,91.93V80.63h1.83V95H51.84L44.28,83.71V95Z"/><path class="cls-1" d="M57,95V80.63h5a11.85,11.85,0,0,1,2.56.21,4.86,4.86,0,0,1,2.11,1,5.77,5.77,0,0,1,1.7,2.46,9.5,9.5,0,0,1,.57,3.42,9.83,9.83,0,0,1-.39,2.9,6.94,6.94,0,0,1-1,2.1,5.25,5.25,0,0,1-1.31,1.31,5.58,5.58,0,0,1-1.71.72,10.15,10.15,0,0,1-2.32.24Zm1.91-1.69H62a7.3,7.3,0,0,0,2.23-.27,3.24,3.24,0,0,0,1.29-.75,4.66,4.66,0,0,0,1.06-1.82,8.91,8.91,0,0,0,.38-2.77,6.65,6.65,0,0,0-.75-3.47,3.73,3.73,0,0,0-1.8-1.63,7.63,7.63,0,0,0-2.46-.29h-3Z"/><path class="cls-1" d="M70.93,88a7.83,7.83,0,0,1,1.92-5.61,6.55,6.55,0,0,1,5-2,6.94,6.94,0,0,1,3.59,1A6.19,6.19,0,0,1,83.85,84a8.63,8.63,0,0,1,.84,3.87,8.46,8.46,0,0,1-.88,3.91,6,6,0,0,1-2.51,2.62,7.16,7.16,0,0,1-3.49.89,6.81,6.81,0,0,1-3.63-1,6.32,6.32,0,0,1-2.43-2.69A8.1,8.1,0,0,1,70.93,88Zm2,0a5.78,5.78,0,0,0,1.4,4.1,4.88,4.88,0,0,0,7,0,6.15,6.15,0,0,0,1.38-4.29,7.31,7.31,0,0,0-.59-3.07,4.48,4.48,0,0,0-1.73-2A4.74,4.74,0,0,0,77.83,82a4.88,4.88,0,0,0-3.48,1.38Q72.9,84.79,72.89,88Z"/><path class="cls-1" d="M90,95l5.53-14.39h2.05L103.51,95h-2.17l-1.68-4.36h-6L92.06,95Zm4.15-5.91h4.88l-1.5-4c-.46-1.21-.8-2.21-1-3a18.17,18.17,0,0,1-.77,2.75Z"/><path class="cls-1" d="M105.35,95V80.63h1.91V95Z"/><path class="cls-1" d="M110.65,95V80.63H117A8.39,8.39,0,0,1,120,81a3.17,3.17,0,0,1,1.6,1.37,4.07,4.07,0,0,1,.6,2.17,3.62,3.62,0,0,1-1,2.58,5,5,0,0,1-3.06,1.33,5,5,0,0,1,1.14.72,9.79,9.79,0,0,1,1.59,1.92l2.5,3.91h-2.4L119,92a22.6,22.6,0,0,0-1.38-2,4.6,4.6,0,0,0-1-1,3,3,0,0,0-.87-.38,5.38,5.38,0,0,0-1.06-.07h-2.21V95Zm1.9-8h4.09a6.23,6.23,0,0,0,2-.27,2.22,2.22,0,0,0,1.12-.86,2.4,2.4,0,0,0,.38-1.29,2.16,2.16,0,0,0-.74-1.68,3.49,3.49,0,0,0-2.35-.66h-4.55Z"/><path class="cls-1" d="M125.05,95V80.63H127v12.7h7.09V95Z"/><path class="cls-1" d="M136.64,95V80.63h1.91V95Z"/><path class="cls-1" d="M141.88,95V80.63h2l7.56,11.3V80.63h1.83V95h-2l-7.55-11.31V95Z"/><path class="cls-1" d="M156.46,95V80.63h10.41v1.7h-8.51v4.41h8v1.69h-8v4.9h8.84V95Z"/><path class="cls-1" d="M169.18,90.4l1.8-.16a3.9,3.9,0,0,0,.59,1.77A3.19,3.19,0,0,0,173,93.13a5.38,5.38,0,0,0,2.21.43,5.44,5.44,0,0,0,1.92-.32,2.71,2.71,0,0,0,1.24-.89,2.09,2.09,0,0,0,.41-1.24,1.88,1.88,0,0,0-.39-1.18,3,3,0,0,0-1.3-.85c-.39-.15-1.24-.38-2.56-.7a13.16,13.16,0,0,1-2.78-.9,3.86,3.86,0,0,1-1.54-1.34,3.33,3.33,0,0,1-.5-1.79,3.54,3.54,0,0,1,.62-2,3.72,3.72,0,0,1,1.8-1.44,6.79,6.79,0,0,1,2.64-.49,7.24,7.24,0,0,1,2.82.51,4,4,0,0,1,1.89,1.52,4.37,4.37,0,0,1,.7,2.27l-1.82.13a3,3,0,0,0-1-2.06,3.85,3.85,0,0,0-2.51-.7,3.94,3.94,0,0,0-2.51.64,1.89,1.89,0,0,0-.8,1.52,1.66,1.66,0,0,0,.56,1.28,7.52,7.52,0,0,0,2.87,1,19.2,19.2,0,0,1,3.19.91A4.48,4.48,0,0,1,180,88.91a3.65,3.65,0,0,1,.59,2,3.9,3.9,0,0,1-.65,2.16,4.29,4.29,0,0,1-1.89,1.58,6.58,6.58,0,0,1-2.78.57A8.26,8.26,0,0,1,172,94.7,4.55,4.55,0,0,1,170,93,4.79,4.79,0,0,1,169.18,90.4Z"/><polygon class="cls-2" points="36.18 72.85 -0.05 72.85 72.03 0.95 89.87 18.79 36.18 72.85"/><polygon class="cls-2" points="126.65 18.79 143.93 0.95 162.5 18.79 144.58 36.26 126.65 18.79"/><path class="cls-2" d="M198.54,18.61s3.8-6,14.19-10.78C220.27,4.36,234.4,5,234.4,5S244.05.19,252.33.56l-36,35.7Z"/><polygon class="cls-3" points="72.03 72.85 107.89 36.9 72.03 0.95 107.89 0.95 144.58 36.26 108.31 72.85 72.03 72.85"/><polygon class="cls-3" points="143.93 0.95 180.64 36.9 144.58 72.85 180.64 72.85 216.38 36.26 180.16 0.54 143.93 0.95"/></svg>